<svg id="Layer_2" data-name="Layer 2" xmlns="http://www.w3.org/2000/svg" xmlns:xlink="http://www.w3.org/1999/xlink" viewBox="0 0 400 300" width="406" height="306" class="illustration styles_illustrationTablet__1DWOa"><defs><linearGradient id="linear-gradient" x1="223.42" y1="252.53" x2="266.63" y2="226.66" gradientUnits="userSpaceOnUse"><stop offset="0" stop-color="#aa4200" stop-opacity="0"></stop><stop offset="0.98" stop-color="#aa003d"></stop></linearGradient><linearGradient id="linear-gradient-2" x1="142.33" y1="217.53" x2="173.76" y2="190.83" xlink:href="#linear-gradient"></linearGradient><linearGradient id="linear-gradient-3" x1="302.05" y1="229.75" x2="335.09" y2="183.19" xlink:href="#linear-gradient"></linearGradient></defs><title>PP</title><path d="M194.28,287,14.56,180.76c-5.72-3.21-10.63-8.49-5.05-11.94l180.37-104c2.71-1.68,6.82-2.78,9.57-1.18L388.11,173.18c5.72,3.32,6.75,12.6,1,15.93L218,286.81A23.9,23.9,0,0,1,194.28,287Z" fill="#d9616f"></path><path d="M281.66,228.64l-20.51-7.25-60.93,30.05,23.87,15.66S267.07,237,281.66,228.64Z" opacity="0.32" fill="url(#linear-gradient)"></path><path d="M200,195.6l-27.15-18.88L119,210.3l30.67,18.81S185.41,203.93,200,195.6Z" opacity="0.32" fill="url(#linear-gradient-2)"></path><path d="M113.38,37.39a5.69,5.69,0,0,0-8.52-4.93L60.39,58a6.33,6.33,0,0,0-3.18,5.5v79.17a5.69,5.69,0,0,0,8.48,5l43.08-24.29a9.06,9.06,0,0,0,4.61-7.89Z" fill="#68e1fd"></path><path d="M113.38,37.39a5.69,5.69,0,0,0-8.52-4.93L60.39,58a6.33,6.33,0,0,0-3.18,5.5v79.17a5.69,5.69,0,0,0,8.48,5l43.08-24.29a9.06,9.06,0,0,0,4.61-7.89Z" opacity="0.1"></path><path d="M116.08,38.77a5.69,5.69,0,0,0-8.52-4.93L63.1,59.33a6.33,6.33,0,0,0-3.18,5.5V144a5.69,5.69,0,0,0,8.48,5l43.08-24.29a9.06,9.06,0,0,0,4.61-7.89Z" fill="#68e1fd"></path><path d="M116.08,199.6,111,197.51s2.08-1.92,2.08-1.92Z" fill="#6c8fc1"></path><polygon points="258.98 12.94 253.71 10.83 254.59 13.63 257.93 13.78 258.98 12.94" fill="#6c8fc1"></polygon><path d="M108.88,101.53l-.15,92.27a4.17,4.17,0,0,0,6.21,3.64l135.87-76a9,9,0,0,0,4.63-7.66l2.49-97.4a5.51,5.51,0,0,0-8.33-4.87L114.23,92.14A11,11,0,0,0,108.88,101.53Z" fill="#68e1fd"></path><path d="M108.88,101.53l-.15,92.27a4.17,4.17,0,0,0,6.21,3.64l135.87-76a9,9,0,0,0,4.63-7.66l2.49-97.4a5.51,5.51,0,0,0-8.33-4.87L114.23,92.14A11,11,0,0,0,108.88,101.53Z" opacity="0.1"></path><path d="M213.06,132.52,198.25,154.2s-2,5.94,4.82,10.54,24.26,13.69,24.26,13.69l-34.72,21.7L166,185s-11.83-4.39,1.56-28.87" fill="#68e1fd"></path><path d="M213.06,132.52,198.25,154.2s-2,5.94,4.82,10.54,24.26,13.69,24.26,13.69l-34.72,21.7L166,185s-11.83-4.39,1.56-28.87" fill="#68e1fd"></path><path d="M213.06,132.52,198.25,154.2s-2,5.94,4.82,10.54,24.26,13.69,24.26,13.69l-34.72,21.7L166,185s-11.83-4.39,1.56-28.87" opacity="0.3"></path><path d="M113.22,103.32l-.15,92.27a4.17,4.17,0,0,0,6.21,3.64l135.87-76a9,9,0,0,0,4.63-7.66l2.49-97.4a5.51,5.51,0,0,0-8.33-4.87L118.57,93.93A11,11,0,0,0,113.22,103.32Z" fill="#68e1fd"></path><polygon points="120.1 101.12 120.1 178.7 253.54 105.61 256.49 20.71 120.1 101.12" fill="#fff"></polygon><ellipse cx="146.57" cy="140.4" rx="6.17" ry="3.93" transform="translate(-28.73 242.69) rotate(-74.03)" fill="#4e62d4"></ellipse><ellipse cx="192.44" cy="115.92" rx="6.17" ry="3.93" transform="translate(28.05 269.04) rotate(-74.03)" fill="#4e62d4"></ellipse><ellipse cx="233.8" cy="93.28" rx="6.17" ry="3.93" transform="translate(79.8 292.39) rotate(-74.03)" fill="#4e62d4"></ellipse><line x1="145.4" y1="141.86" x2="235.45" y2="92.23" fill="none" stroke="#0071bc" stroke-miterlimit="10"></line><path d="M247.57,100.26,243.18,97a.88.88,0,0,0-.41-.7q-6.29-4.38-12.56-8.8a1,1,0,0,0-1.58.55c-.44.76.12,1.55.83,2.14s1.59,1.31,2.39,2a1,1,0,0,0-.26.28c-.64,1-1.71,2.42-1.72,3.67s1,1.87,1.78,2.55l0,.18c-.16,1.54.52,2,1.74,2.73a1,1,0,0,0,.81.14,17.12,17.12,0,0,0,2.67,1.42l3.7,1.88c.94.48,1.62-.65,1.24-1.41.74.06,1.05-.75.86-1.38a.85.85,0,0,0,.21-.33l0-.05,1.28,1c1,.81,2.26-.8,1.23-1.61l-.91-.72,1.87,1.4A1,1,0,0,0,247.57,100.26Z" fill="#f04900"></path><path d="M276.65,228.85l1.58-1,0-17.79-7.81-.28s-.15,7.59-2,9.32-6.41.49-6.86.64-3.52-.74-4.9.68,4.68,5.52,7.9,6.27a20.8,20.8,0,0,0,6.7.25s.7-4.55,1.82-4.1,1.2,5.26,1.2,5.26Z" fill="#ffc881"></path><path d="M282.53,134.67a126.26,126.26,0,0,1,1.94,18.49c.13,7-2.34,62.94-2.34,62.94s-4.64,5.44-15.94,2.16c-1.64-.47-2.16-54.59-2.16-54.59l3.86-24.84" fill="#35406e"></path><path d="M277.33,106.41c-.62,0-21.41-.54-35.46-13.13,0,0-6.73,6.6-4,11.65,0,0,19.92,19.19,35.11,15.26" fill="#ffc881"></path><path d="M260.86,100.48a.31.31,0,0,0-.52,0,13.72,13.72,0,0,0-2,10.29c.08.38.66.22.59-.16a13.09,13.09,0,0,1,1.67-9.37,21.64,21.64,0,0,1,2.56,10.4.3.3,0,0,0,.61,0A22.29,22.29,0,0,0,260.86,100.48Z" fill="#42a200"></path><path d="M255.25,242.57l1.58-1,0-17.79-7.81-.28s-.15,7.59-2,9.32-6.41.49-6.86.64-3.52-.74-4.9.68,4.68,5.52,7.9,6.27a20.8,20.8,0,0,0,6.7.25s.7-4.55,1.82-4.1,1.2,5.26,1.2,5.26Z" fill="#ffc881"></path><path d="M258.06,137.26s-7.2,26.58-10.13,50.37c-.7,5.71-6.61,39.77-6.61,39.77s9.74,3.56,18.4.77c0,0,10.3-43.46,10.74-44.31s7.39-29,8.19-49.2" fill="#35406e"></path><path d="M280.07,103.44,276,101.89c-1.05.07-10.4,3.13-14.65,9.32a40.52,40.52,0,0,0-1.36,5.93c-.54,2.67-1,5.35-1.34,8a59.2,59.2,0,0,0-.5,8.86c0,1.27.07,1.91.2,3.17a5.61,5.61,0,0,0,1.58,1.12c12.28,5.28,22-1.13,22.49-2.12s2.11-15.47,3-24.09A8.34,8.34,0,0,0,280.07,103.44Z" fill="#ffc881"></path><path d="M270,87.67s-3.86,14,1.27,15.93S283,100,283.7,97.14,277.73,83.46,270,87.67Z" fill="#f04900"></path><path d="M295.37,83.48A6.52,6.52,0,0,0,287.61,80c-2.83.92-4.54,3.35-5.37,6.06-2.55-2.23-6.35-3.36-11.17-1.88,0,0-4.73,2-3.87,5s4.45,3,7.46,3.59.57,3.23.72,6.2,1.49,3.46,2.74,3.72,6.93-1,7.73-7.67a8.89,8.89,0,0,0,.06-1.23,15.92,15.92,0,0,0,2.35.07,8.73,8.73,0,0,0,5-1.38A7.58,7.58,0,0,0,295.37,83.48Z" fill="#ffdf58"></path><path d="M265.1,103a2.67,2.67,0,0,0,.47-1.9,1,1,0,0,0-1.82-.42l-.44.6c-.07-.77-.15-1.54-.26-2.31a1,1,0,0,0-2,.07c0,.24-.06.49-.08.73a4,4,0,0,0-.17.79c-1.09.14-2.39.54-2.58,1.79,0,0,0,.06,0,.08-.84,0-1.66.33-1.69,1.33a3.68,3.68,0,0,0,0,.57c-.85.25-1.47.68-1.35,1.79a16.34,16.34,0,0,0,1,3.77,1,1,0,0,0,.76.57c.12.54.26,1.07.41,1.6a1.5,1.5,0,0,0,2.52.28,1.18,1.18,0,0,0,.3-.06,1,1,0,0,0,.83.14,1,1,0,0,0,1.51-.45,1,1,0,0,0,.33-.84c0-.23,0-.46,0-.68v0Q264,106.75,265.1,103Z" fill="#f04900"></path><path d="M263.38,108.2c-.32.08-4.82-4.05-8.23-2.63,0,0-13,21.92-.87,27.72,6,2.88,10.67-6,10.67-6l-3.45-6.82Z" fill="#ffc881"></path><path d="M262.31,109.09a43.8,43.8,0,0,0-5.78,15.16c-.11.63.85.9,1,.27a43,43,0,0,1,5.68-14.92C263.51,109,262.65,108.54,262.31,109.09Z" fill="#f04900"></path><path d="M264.72,128.13c-1,1.95-2.28,4-4.28,5a6.56,6.56,0,0,1-7.23-1.12c-4.26-3.67-3.62-10-2.77-14.93.11-.63-.85-.9-1-.27-1,5.54-1.51,12.74,3.72,16.45a7.52,7.52,0,0,0,7.09,1c2.5-1,4.09-3.38,5.29-5.69C265.88,128.07,265,127.56,264.72,128.13Z" fill="#f04900"></path><path d="M275.62,154.21c-.64,12.71-4.39,24.89-7.57,37.13s-5.89,24.43-8.21,36.78l1.08-.3q3.53-18.71,8.34-37.15c3.15-12,6.73-24,7.36-36.46C276.65,153.57,275.65,153.57,275.62,154.21Z" fill="#653200"></path><polyline points="185.47 99.09 185.47 103.8 191.54 94.26 192.39 90" fill="#394ea8"></polyline><polygon points="179.44 96.67 193.43 88.55 191.47 101.95 186.44 99.6 192.05 90.67 185.41 99.21 179.44 96.67" fill="#4e62d4"></polygon><path d="M147.61,107.82a14.47,14.47,0,0,1,4.59,2.56c2.16,1.83-5.82,1.74-5.82,1.74" fill="#f2ae16"></path><ellipse cx="144.41" cy="115.92" rx="8.75" ry="7.99" transform="translate(-33.34 167.84) rotate(-55.04)" fill="#f2ae16"></ellipse><ellipse cx="146.57" cy="117.08" rx="8.75" ry="7.99" transform="translate(-33.37 170.1) rotate(-55.04)" fill="#ffd008"></ellipse><ellipse cx="146.57" cy="117.08" rx="7.67" ry="7" transform="translate(-33.37 170.1) rotate(-55.04)" fill="none" stroke="#f7931e" stroke-miterlimit="10"></ellipse><path d="M149.56,118.63a3.12,3.12,0,0,0-2-2.14q.32-1.25.62-2.51a3.25,3.25,0,0,1,.59.34c.56.41,1.12-.52.56-.92a3.4,3.4,0,0,0-.91-.45c.11-.46.22-.93.32-1.39.15-.67-.88-1-1-.3-.11.49-.23,1-.34,1.48-1.56-.12-3.23.54-3.39,2.25-.12,1.26,1,1.72,2,2.06l.3.1q-.31,1.19-.63,2.37a9,9,0,0,1-1.22-.75c-.56-.41-1.12.51-.56.92a8.42,8.42,0,0,0,1.49.88l-.23.81a.54.54,0,0,0,1,.3l.21-.75a3.5,3.5,0,0,0,1.73,0A2,2,0,0,0,149.56,118.63Zm-3.72-2.76c-.79-.68-.69-1.45.2-1.88a2.44,2.44,0,0,1,1.12-.24q-.29,1.2-.59,2.4A2.18,2.18,0,0,1,145.84,115.88Zm2,4a2,2,0,0,1-1.18,0q.32-1.18.63-2.37l.26.14C148.29,118.13,149.18,119.41,147.87,119.91Z" fill="#f7931e"></path><path d="M226.7,64.2a14.47,14.47,0,0,1,5.21-.7c2.82.17-3.61,4.88-3.61,4.88" fill="#f2ae16"></path><ellipse cx="228.99" cy="72.6" rx="7.99" ry="8.75" transform="translate(-2.23 7.45) rotate(-1.85)" fill="#f2ae16"></ellipse><ellipse cx="231.41" cy="72.23" rx="7.99" ry="8.75" transform="translate(-2.22 7.52) rotate(-1.85)" fill="#ffd008"></ellipse><ellipse cx="231.41" cy="72.23" rx="7" ry="7.67" transform="translate(-2.22 7.52) rotate(-1.85)" fill="none" stroke="#f7931e" stroke-miterlimit="10"></ellipse><path d="M234.74,71.69a3.12,3.12,0,0,0-2.86-.54q-.5-1.19-1-2.38a3.25,3.25,0,0,1,.68-.09c.69,0,.59-1.09-.1-1.07a3.4,3.4,0,0,0-1,.19l-.58-1.31c-.28-.63-1.29-.25-1,.38l.61,1.39c-1.32.84-2.26,2.36-1.37,3.84.66,1.09,1.83.78,2.84.45l.3-.1q.46,1.13.91,2.27a9,9,0,0,1-1.43.13c-.69,0-.59,1.08.1,1.07a8.42,8.42,0,0,0,1.72-.19l.31.79a.54.54,0,0,0,1-.38l-.28-.73a3.5,3.5,0,0,0,1.4-1A2,2,0,0,0,234.74,71.69Zm-4.63,0c-1-.07-1.42-.75-1-1.63a2.44,2.44,0,0,1,.75-.87q.49,1.14,1,2.28A2.18,2.18,0,0,1,230.11,71.71Zm4,2a2,2,0,0,1-.94.71q-.45-1.14-.91-2.27l.29,0C233.42,72,234.89,72.54,234.15,73.73Z" fill="#f7931e"></path><path d="M153.42,104.33s.34-.39,1-1.1" fill="none" stroke="#0071bc" stroke-linecap="round" stroke-miterlimit="10"></path><path d="M157.25,100.45c7.85-7.39,27.7-23.43,58.81-31.26" fill="none" stroke="#0071bc" stroke-linecap="round" stroke-miterlimit="10" stroke-dasharray="2.97 3.96"></path><path d="M218,68.72l1.47-.34" fill="none" stroke="#0071bc" stroke-linecap="round" stroke-miterlimit="10"></path><path d="M73.4,76.33l33.32-19.85c-.12.49-.21,1-.33,1.44Q98.74,88.44,91.1,119a2.62,2.62,0,0,1-1.18,1.88c-.7.38-1.3.72-1.9,1.09l-2.64,1.59L99.7,66.34,82,76.89l1.07,1.67c.83,1.26,1.64,2.56,2.51,3.76.33.47.28.88-.12,1.65-1.67,3.21-3.3,6.44-4.95,9.67-.21.41-.41.84-.76,1.54l10.72-6.39c-.57,2.28-1.06,4.28-1.6,6.29a1.65,1.65,0,0,1-.6.76L77,102.56,69.54,107l-.26-.3a13.42,13.42,0,0,0,.84-1.26c3.13-5.93,6.25-11.88,9.39-17.79.49-.92.55-1.39.16-2-1.92-2.77-3.78-5.61-5.66-8.43C73.82,77,73.65,76.72,73.4,76.33Z" fill="#1b1464"></path><polyline points="338.31 183.03 285.22 208.46 294.51 237.5 362.17 190.02" opacity="0.32" fill="url(#linear-gradient-3)"></polyline><path d="M344.55,149.61A37,37,0,0,0,336.84,175c1,14.84,9.38,19.15,9.38,19.15l9.94.55s11.82-3.86,10.28-23.16c-1.45-18.12-7.34-22.38-7.34-22.38" fill="#68e1fd"></path><ellipse cx="351.88" cy="149.61" rx="7.32" ry="2.59" fill="#003b94"></ellipse><ellipse cx="351.88" cy="192.6" rx="7.32" ry="2.59" fill="#68e1fd"></ellipse><path d="M348.87,150.39,340,99.55c-.19-1.11-1.88-.64-1.69.46l8.86,50.84C347.38,152,349.06,151.5,348.87,150.39Z" fill="#007f68"></path><path d="M350.48,150.56a2.11,2.11,0,0,1,.82,0,1.83,1.83,0,0,1,.9.55q1.06-21.3.38-42.63c0-1.12-1.78-1.13-1.75,0Q351.51,129.54,350.48,150.56Z" fill="#007f68"></path><path d="M370.4,101.23a467.48,467.48,0,0,0-17.12,48.85.87.87,0,0,0,1.69.46,467.47,467.47,0,0,1,17.12-48.85C372.52,100.66,370.83,100.2,370.4,101.23Z" fill="#007f68"></path><path d="M341.9,120.52s-1-.12-5.14-4.52,1.1-7.71-1.32-12.66,1-11.45,1.76-16.4a23,23,0,0,0,3.67,9.69c3.15,4.51,4.91,8.59,4.58,14.31a50.66,50.66,0,0,1-1.86,10.68" fill="#007f68"></path><path d="M350.88,128.36s-.9-.35-3.89-5.63,2.94-7.21,1.79-12.6,3.74-10.86,5.69-15.48a23,23,0,0,0,1.21,10.29c2,5.14,2.68,9.52,1,15a50.66,50.66,0,0,1-4.39,9.91" fill="#007f68"></path><path d="M363.36,119.21s-.81-.52-2.65-6.31,4.35-6.45,4.34-12,5.89-9.87,8.74-14a23,23,0,0,0-.92,10.32c.87,5.44.67,9.87-2.12,14.87a50.66,50.66,0,0,1-6.33,8.8" fill="#007f68"></path></svg>