<svg xmlns="http://www.w3.org/2000/svg" xmlns:xlink="http://www.w3.org/1999/xlink" viewBox="0 0 400 300" width="406" height="306" class="illustration styles_illustrationTablet__1DWOa"><defs><linearGradient id="linear-gradient" x1="288.49" y1="168.7" x2="235.33" y2="211.97" gradientUnits="userSpaceOnUse"><stop offset="0" stop-color="#d4a397"></stop><stop offset="1" stop-color="#fff"></stop></linearGradient><linearGradient id="linear-gradient-2" x1="93.18" y1="156.87" x2="52.63" y2="189.88" xlink:href="#linear-gradient"></linearGradient><linearGradient id="linear-gradient-3" x1="232.63" y1="213.57" x2="192.08" y2="246.58" xlink:href="#linear-gradient"></linearGradient></defs><title>531-540</title><g style="isolation: isolate;"><g id="Layer_2" data-name="Layer 2"><path d="M194.28,289.32,14.56,183.1c-5.72-3.21-10.63-8.49-5.05-11.94l180.37-104c2.71-1.68,6.82-2.78,9.57-1.18L388.11,175.52c5.72,3.32,6.75,12.6,1,15.93L218,289.15A23.9,23.9,0,0,1,194.28,289.32Z" fill="#ff9f9f"></path><path d="M221.57,169.57l-18.94,19s53.42,40.8,63.41,45l34.8-21.35" fill="url(#linear-gradient)" style="mix-blend-mode: multiply;"></path><path d="M69.23,167.12,37,183.52s10.11,10.6,20.1,14.8L91.92,177" fill="url(#linear-gradient-2)" style="mix-blend-mode: multiply;"></path><polyline points="234.28 16.49 227.62 19.44 234.03 22.26 235.57 18.95" fill="#ef7f6c"></polyline><path d="M295.06,212.44l-55.41-32.29a14.77,14.77,0,0,1-7.34-12.76L230.52,20.72c0-3.85,6-5.81,9.29-3.85l57.33,33.86a9.5,9.5,0,0,1,4.67,8.18V208.56A4.49,4.49,0,0,1,295.06,212.44Z" fill="#ef7f6c"></path><polyline points="299.5 212.48 292.25 216.31 293.09 211.26 298.12 210.35" fill="#ef7f6c"></polyline><path d="M288.11,216.12,232.7,183.83a14.77,14.77,0,0,1-7.34-12.76V23a3.92,3.92,0,0,1,5.92-3.38l58.91,34.79a9.5,9.5,0,0,1,4.67,8.18V212.24A4.49,4.49,0,0,1,288.11,216.12Z" fill="#f4f4f4"></path><polygon points="291.34 71.62 228.21 35.42 228.21 164.96 291.34 201.45 291.34 71.62" fill="#68e1fd"></polygon><ellipse cx="253.9" cy="188.59" rx="2.91" ry="3.93" transform="translate(-36.85 64.11) rotate(-13.43)" fill="#bababc"></ellipse><path d="M251.54,41.65h0a1.41,1.41,0,0,0,.71,1.22l12.2,7a1.41,1.41,0,0,0,2.11-1.22v-.3a1.41,1.41,0,0,0-.73-1.23l-12.2-6.71A1.41,1.41,0,0,0,251.54,41.65Z" fill="#ccc"></path><ellipse cx="245.94" cy="37.92" rx="1.38" ry="1.88" transform="matrix(0.94, -0.35, 0.35, 0.94, 2.12, 87.71)" fill="#ccc"></ellipse><path d="M204.92,224.83l-28.46,15.39s10.11,10.6,20.1,14.8l34.8-21.35" fill="url(#linear-gradient-3)" style="mix-blend-mode: multiply;"></path><path d="M225,219.93a42.3,42.3,0,0,1,.61,6.16c-.15,1.43-3.36,5.54-4.8,6.12s-3.27,1-2.4,3.24,9.52-1.52,10.23-2.08,1.48-6.1,1.74-5.86.14,6.27,1,6.15,0-15.17,0-15.17" fill="#ff831d"></path><path d="M207.65,214a42.3,42.3,0,0,1-.35,6.18c-.37,1.38-4.17,4.95-5.69,5.3s-3.39.51-2.88,2.83,9.64,0,10.42-.47,2.41-5.8,2.63-5.52-.84,6.22,0,6.23,2.33-15,2.33-15" fill="#ff831d"></path><path d="M225.37,222.47l.25,3.62a11.21,11.21,0,0,0,6-2.39V222" fill="#d17213"></path><path d="M207.58,216l-.16,3.62a11.21,11.21,0,0,0,6.22-1.71l.19-1.71" fill="#d17213"></path><path d="M186.4,105.37s-6.16-7.82-7.64-7.76-.94,1.56-.94,1.56-3.94-3-6.15-.92c0,0-2-1-2.5,0a1.74,1.74,0,0,0,.36,1.84s-1.19,1-.78,1.63a1.28,1.28,0,0,0,1.07.64s-.72.39-.54,1,7,6,16.58,6.2" fill="#f7931e"></path><path d="M180,106.52h-.11a3.7,3.7,0,0,1-.48-1.06,4.88,4.88,0,0,1-.26-1.24,5.09,5.09,0,0,1,.44-2.48.17.17,0,0,0,0-.19,14.21,14.21,0,0,1-1.92-2.91c-.09-.18-.36,0-.27.16a14.08,14.08,0,0,0,1.45,2.34c.33.43.42.52.26,1a5.15,5.15,0,0,0-.23,1.09,5.36,5.36,0,0,0,.3,2.39c.13.34.36,1.15.76,1.23a.16.16,0,0,0,.19-.11v0A.16.16,0,0,0,180,106.52Z" fill="#42210b"></path><path d="M177.58,100.58,171.8,98c-.18-.08-.34.19-.16.27l5.77,2.54C177.6,100.93,177.76,100.66,177.58,100.58Z" fill="#42210b"></path><path d="M176.4,102a19.31,19.31,0,0,1-6.74-2.11c-.18-.09-.34.18-.16.27a19.74,19.74,0,0,0,6.89,2.16C176.59,102.36,176.59,102,176.4,102Z" fill="#42210b"></path><path d="M175.88,103.8a27.58,27.58,0,0,1-6.36-1.66c-.19-.07-.27.23-.08.3a27.58,27.58,0,0,0,6.36,1.66C176,104.12,176.08,103.82,175.88,103.8Z" fill="#42210b"></path><path d="M208.49,134.32S200,183.14,200.17,214c0,0,11,5.35,17.55,1.94,0,0,2.52-73.16,5.55-78.3" fill="#5e331f"></path><path d="M216.28,137.13s2.25,66.23,2.62,84.27c0,0,14.88,3.59,16.51-.51s-5.66-85.08-5.66-85.08" fill="#5e331f"></path><path d="M235.07,221.39c4.3-9.1,3.38-24,2.1-31.45s-.45-14.87-.25-27-5.68-25.09-5.68-25.09l-4.32.75" fill="#5e331f"></path><path d="M218.77,139.16c4.25,1.07,9,1.95,12.93-.36,6.54-27.58,1.75-36.13-9.55-39.39a10.23,10.23,0,0,0-11.31,4.75,274.36,274.36,0,0,0-2.36,31.12c0,.54,3.77,1.87,4.29,2.08a41.81,41.81,0,0,0,4.68,1.47Z" fill="#ffa197"></path><path d="M212.16,102.42s-8.4,11.93-25.55.21c0,0-5.89,7.15-4.94,8.24S201,126,209.78,118.41" fill="#ffa197"></path><path d="M218.93,154a.35.35,0,0,0-.69,0q-.88,34.08.48,68.16c0,.44.71.45.69,0Q218,188.07,218.93,154Z" fill="#fff"></path><path d="M211.72,120.2c-.51-.18-8.19-2.16-8.19-2.16l-.91,10.36L212.72,132" fill="#ffa197"></path><path d="M217.15,100h0s-.65,5.9,3.85,4.15a37.54,37.54,0,0,0,5.49-2.66V97.94" fill="#cc6c62"></path><path d="M214.31,87.53s-2.17,11.78,2.77,13.69,9.49-7,9.49-9.74C226.57,85.79,220.92,86.28,214.31,87.53Z" fill="#f7931e"></path><path d="M242.56,117.61a3.76,3.76,0,0,0-.89-2c-1-1.17-2.64-1.67-3.52-3-1.43-2.13.88-4,1.05-6.11.32-3.88-4.69-4.34-6.87-6.26a7.47,7.47,0,0,1-2-3.88c-1.25-4.48-1.51-10-5.88-12.75a9.45,9.45,0,0,0-4.54-1.21,8.67,8.67,0,0,0-5.46,1.16A5.77,5.77,0,0,0,212,87.83c-.08,1.22.3,3.16,1.79,3.34,1,.12,1.47-.64,2.09-1.24s1.11-1.55,1.81-2.2a3.2,3.2,0,0,1,1.65-.86c2.49-.39.24,4.08.2,5a2.15,2.15,0,0,0,.42,1.44,2.86,2.86,0,0,0,1.51.84c1.19.33,3.26.94,2.54,2.64a30.91,30.91,0,0,1-1.85,2.58,5.15,5.15,0,0,0,.2,5.94,12.59,12.59,0,0,0,2.36,2.14,4.16,4.16,0,0,1,1.78,2.78c0,.07,0,.14,0,.2-.23,1.82-1,4.13-.92,6.16a3.63,3.63,0,0,0,.52,2.09,6.42,6.42,0,0,0,1.51,1.92,10.11,10.11,0,0,0,9.62,2c1.64-.49,3.52-1.11,4.64-2.49A3.34,3.34,0,0,0,242.56,117.61Zm-4-11a4.09,4.09,0,0,0,0-.76,3.63,3.63,0,0,0-.12-.56A2.79,2.79,0,0,1,238.6,106.56Z" fill="#5e331f"></path><ellipse cx="214.22" cy="94.11" rx="1.68" ry="1.94" fill="none" stroke="#42210b" stroke-miterlimit="10"></ellipse><ellipse cx="219.08" cy="94.48" rx="1.68" ry="1.94" fill="none" stroke="#42210b" stroke-miterlimit="10"></ellipse><path d="M217.53,94c0-.18-.26-.24-.41-.29a1.42,1.42,0,0,0-.37-.06q.05-.24.1-.48c0-.19-.25-.27-.29-.08s-.08.39-.13.59h0c-.21.06-.82.41-.55.68a.15.15,0,0,0,.25-.15.52.52,0,0,1,.27-.21c-.06.23-.12.46-.19.69-.18.59-.55,1.18-.68,1.76s.22.59.64.7a.15.15,0,0,0,.08-.29c-.51-.13-.39-.41-.22-.8s.24-.6.34-.9.25-.81.35-1.23a1.07,1.07,0,0,1,.26,0,1.2,1.2,0,0,1,.28.09.13.13,0,0,0,.18.13h0A.15.15,0,0,0,217.53,94Z" fill="#42210b"></path><path d="M219.3,97.42a2.38,2.38,0,0,1-1.84.77.15.15,0,0,0,0,.3,2.67,2.67,0,0,0,2.05-.86C219.64,97.49,219.43,97.28,219.3,97.42Z" fill="#42210b"></path><path d="M208.48,130.26s17.59,6.14,25.36-2.32l-1.26,6.92A23.88,23.88,0,0,1,208.48,130.26Z" fill="#cc6c62"></path><path d="M222.65,117.86c-2.37,1.9-5.84,1.78-8.72,1.74a45.68,45.68,0,0,1-9.55-1.18c-.65-.15-.93.85-.28,1a46.76,46.76,0,0,0,11.14,1.22c2.86,0,5.83-.19,8.15-2C223.91,118.18,223.17,117.45,222.65,117.86Z" fill="#606060"></path><path d="M209.52,111.1l-.53,8.17c0,.67,1,.67,1,0l.53-8.17C210.61,110.43,209.57,110.44,209.52,111.1Z" fill="#cc6c62"></path><path d="M211.2,119.4c-4-16.73-17.49-28.08-31.13-26.84h0l-.33,0-.15,0a84,84,0,0,0-11.7,2l4.53,0c-11.82,5.64-18.12,21.25-14.3,37.34,3.51,14.76,14.44,25.34,26.34,26.77l-3.09,1.5s8.69-1,11.73-2.11l.09,0C207.37,154.21,215.41,137.09,211.2,119.4Z" fill="#68e1fd"></path><path d="M211.2,119.4c-4-16.73-17.49-28.08-31.13-26.84h0l-.33,0-.15,0a84,84,0,0,0-11.7,2l4.53,0c-11.82,5.64-18.12,21.25-14.3,37.34,3.51,14.76,14.44,25.34,26.34,26.77l-3.09,1.5s8.69-1,11.73-2.11l.09,0C207.37,154.21,215.41,137.09,211.2,119.4Z" opacity="0.44"></path><ellipse cx="175.65" cy="127.25" rx="27.27" ry="33.54" transform="translate(-24.65 44.04) rotate(-13.36)" fill="#68e1fd"></ellipse><path d="M179.68,153.91l-.33.05c-5.84.89-11.73-1.13-16.59-5.68a30.71,30.71,0,0,1-9-17.87c-2.24-14.79,5.58-28.27,17.48-30.09,5.84-.89,11.73,1.13,16.59,5.68a30.7,30.7,0,0,1,9,17.87C199.06,138.53,191.38,151.92,179.68,153.91Zm-8.19-50c-9.79,1.67-16.17,13.26-14.23,26a27.14,27.14,0,0,0,7.94,15.81c4,3.79,8.89,5.48,13.63,4.76l.26,0c9.79-1.67,16.17-13.26,14.23-26h0a27.14,27.14,0,0,0-7.94-15.81c-4-3.79-8.89-5.48-13.63-4.76Z" fill="#68e1fd"></path><path d="M178.09,142.35l-.2,0c-7,1.06-13.79-5.09-15.1-13.72a17.82,17.82,0,0,1,1.94-11.46,11.83,11.83,0,0,1,8.42-6.12c7-1.06,13.79,5.09,15.1,13.72a17.82,17.82,0,0,1-1.94,11.46A11.78,11.78,0,0,1,178.09,142.35Zm-4.55-27.73a8.3,8.3,0,0,0-5.73,4.35,14.25,14.25,0,0,0-1.51,9.16c1,6.69,6,11.5,11,10.73a8.26,8.26,0,0,0,5.86-4.36,14.25,14.25,0,0,0,1.51-9.16c-1-6.69-6-11.5-11-10.73Z" fill="#68e1fd"></path><ellipse cx="175.6" cy="127.07" rx="3.86" ry="4.94" transform="translate(-17.07 27.77) rotate(-8.62)" fill="#68e1fd"></ellipse><g opacity="0.27"><path d="M179.68,153.91l-.33.05c-5.84.89-11.73-1.13-16.59-5.68a30.71,30.71,0,0,1-9-17.87c-2.24-14.79,5.58-28.27,17.48-30.09,5.84-.89,11.73,1.13,16.59,5.68a30.7,30.7,0,0,1,9,17.87C199.06,138.53,191.38,151.92,179.68,153.91Zm-8.19-50c-9.79,1.67-16.17,13.26-14.23,26a27.14,27.14,0,0,0,7.94,15.81c4,3.79,8.89,5.48,13.63,4.76l.26,0c9.79-1.67,16.17-13.26,14.23-26h0a27.14,27.14,0,0,0-7.94-15.81c-4-3.79-8.89-5.48-13.63-4.76Z"></path><path d="M178.09,142.35l-.2,0c-7,1.06-13.79-5.09-15.1-13.72a17.82,17.82,0,0,1,1.94-11.46,11.83,11.83,0,0,1,8.42-6.12c7-1.06,13.79,5.09,15.1,13.72a17.82,17.82,0,0,1-1.94,11.46A11.78,11.78,0,0,1,178.09,142.35Zm-4.55-27.73a8.3,8.3,0,0,0-5.73,4.35,14.25,14.25,0,0,0-1.51,9.16c1,6.69,6,11.5,11,10.73a8.26,8.26,0,0,0,5.86-4.36,14.25,14.25,0,0,0,1.51-9.16c-1-6.69-6-11.5-11-10.73Z"></path><ellipse cx="175.6" cy="127.07" rx="3.86" ry="4.94" transform="translate(-17.07 27.77) rotate(-8.62)"></ellipse></g><path d="M212,123.61s-2.44-1.8-2.84-2,.94-5-2.39-5.84l.64,3.34s-6.32-.68-7.53-.15-.68,2.28-.68,2.28-1.9.05-1.59,1.36A1.77,1.77,0,0,0,199,124s-1.44,1.09-.61,2l.83.91a3.48,3.48,0,0,0,.75,1.89c.68.76,8.35-.89,8.35-.89l3.24,2.49Z" fill="#f7931e"></path><path d="M205.54,121.06a40.21,40.21,0,0,1-6.46-.12c-.22,0-.22.33,0,.35a40.21,40.21,0,0,0,6.46.12C205.76,121.39,205.76,121,205.54,121.06Z" fill="#42210b"></path><path d="M205.84,123.36a30.59,30.59,0,0,1-7.11.73.17.17,0,0,0,0,.35,31,31,0,0,0,7.21-.74C206.16,123.65,206.06,123.31,205.84,123.36Z" fill="#42210b"></path><path d="M205.5,125.78a35.53,35.53,0,0,1-6.3,1,.17.17,0,0,0,0,.35,35.92,35.92,0,0,0,6.4-1C205.81,126.07,205.71,125.74,205.5,125.78Z" fill="#42210b"></path><polygon points="162.57 124.33 176.93 125.05 174.42 139.68 172.06 128.23 162.57 124.33" fill="#754c24"></polygon><polyline points="175.29 126.22 127.37 160.12 126.56 158.58 175.29 124.88" fill="#754c24"></polyline><polygon points="137.91 151.49 130.24 150.96 115.23 160.07 124.42 160.7 122.42 169.57 135.68 158.85 137.91 151.49" fill="#754c24"></polygon><path d="M322.29,110.69V159a2.7,2.7,0,0,1-4,2.34L250.9,122.67a2.7,2.7,0,0,1-1.35-2.34v-49a2.7,2.7,0,0,1,4-2.34l66.81,38.45A3.76,3.76,0,0,1,322.29,110.69Z" fill="#edb033"></path><polygon points="312.8 110.05 312.8 152.54 256.81 120.34 256.81 77.83 312.8 110.05" fill="#fff"></polygon><path d="M312.8,152.54l-13.4-29.66a6.08,6.08,0,0,0-8-3.05l-6.58,2.93L272,101.14a4.19,4.19,0,0,0-6.12-1.21l-9,6.8v13.61Z" fill="#27d9d3"></path><path d="M170.55,70,147,56.4a3.56,3.56,0,0,0-5.34,3.08V74.75a3.56,3.56,0,0,0,1.75,3.07L167,91.67a3.56,3.56,0,0,0,5.37-3.07V73.06A3.56,3.56,0,0,0,170.55,70Z" fill="#f24c4c"></path><polyline points="158.8 86.06 154.54 91.18 151.06 81.39" fill="#f24c4c"></polyline><path d="M156.91,72.91s2.88-4.66,5.72-1.13c1.63,2-1.33,8.17-5.57,8.81-3.84.58-9.24-12.58-3.86-12.72C156.69,67.77,156.91,72.91,156.91,72.91Z" fill="#fff"></path><path d="M211.08,49.48,187.56,35.9A3.56,3.56,0,0,0,182.22,39V54.25A3.56,3.56,0,0,0,184,57.32l23.52,13.85a3.56,3.56,0,0,0,5.37-3.07V52.56A3.56,3.56,0,0,0,211.08,49.48Z" fill="#f24c4c"></path><polyline points="199.32 65.57 195.07 70.68 191.59 60.9" fill="#f24c4c"></polyline><path d="M197.44,52.42s2.88-4.66,5.72-1.13c1.63,2-1.33,8.17-5.57,8.81-3.84.58-9.24-12.58-3.86-12.72C197.22,47.28,197.44,52.42,197.44,52.42Z" fill="#fff"></path><path d="M230.86,145.93l-23.52-13.57a3.56,3.56,0,0,0-5.34,3.08v15.27a3.56,3.56,0,0,0,1.75,3.07l23.52,13.85a3.56,3.56,0,0,0,5.37-3.07V149A3.56,3.56,0,0,0,230.86,145.93Z" fill="#f24c4c"></path><polyline points="219.1 162.02 214.84 167.14 211.36 157.35" fill="#f24c4c"></polyline><path d="M224.72,154.53a1.53,1.53,0,0,0,.42-1,1.78,1.78,0,0,0-.81-1.48,1.36,1.36,0,0,0-.31-1.58,10.54,10.54,0,0,0-3.55-1.91,1.08,1.08,0,0,1-.26-.21,15.78,15.78,0,0,0,.55-4.72,2.05,2.05,0,0,0-2.1-2.18s-.41,3.51-1.12,4.6a1.93,1.93,0,0,1-2.3,1c-.47-.19-4.13-1.87-5.61-2.55v7L216,155c.06,1.19,3.31,2.34,5.21,2.83a1,1,0,0,0,.45.31,3.35,3.35,0,0,0,2,.09,1.22,1.22,0,0,0,.77-1.12,1.27,1.27,0,0,0,.76-.85A1.65,1.65,0,0,0,224.72,154.53Z" fill="#fff"></path><polygon points="209.3 143.68 213.04 145.39 213.04 154.17 209.3 152.07 209.3 143.68" fill="#e2d1cf"></polygon><ellipse cx="81.41" cy="169.34" rx="16.13" ry="11.36" fill="#68e1fd"></ellipse><ellipse cx="81.42" cy="162.63" rx="12.08" ry="4.95" fill="#974c26"></ellipse><path d="M82.22,162.75c1-1.33,1.9-2.73,2.9-4.3,1.28-2,2.48-4.05,3.57-6.16a40.7,40.7,0,0,0,2.61-5.84,48.74,48.74,0,0,0,1.91-6.69c.12-.6.23-1.2.33-1.8,0-.28.05-.25.05-.21s0-.19,0-.52c.11-1.22.19-2.44.2-3.67a30.84,30.84,0,0,0-2.4-12.35,53.25,53.25,0,0,0-8.62,21.09q-.13.68-.24,1.36s-.12.83-.17,1.16L82.28,146q-.09.86-.16,1.73c-.18,2.22-.26,4.46-.25,6.69C81.87,157.18,82,160,82.22,162.75Zm5.14-33.34q.44-.5.9-1h0a2,2,0,0,0-.06.87A2.77,2.77,0,0,0,87.36,129.41Z" fill="#999a1c"></path><path d="M82.53,163c.08-1.63.12-3.33.12-5.18,0-2.37-.11-4.75-.33-7.11a40.7,40.7,0,0,0-1-6.32,48.74,48.74,0,0,0-2-6.66c-.22-.57-.45-1.13-.69-1.69-.11-.26-.09-.24-.07-.2l-.25-.46c-.57-1.08-1.16-2.16-1.81-3.19A30.84,30.84,0,0,0,67.84,123,53.25,53.25,0,0,0,72,145.44q.26.64.53,1.27l.48,1.07.51,1q.39.78.8,1.54c1.05,2,2.19,3.89,3.4,5.76C79.22,158.46,80.84,160.73,82.53,163Zm-13.7-30.82q.1-.66.24-1.31h0a2,2,0,0,0,.42.76A2.77,2.77,0,0,0,68.83,132.13Z" fill="#999a1c"></path><path d="M82.61,163.81c-.48-.91-1-1.84-1.61-2.84-.77-1.28-1.59-2.53-2.47-3.73a25.6,25.6,0,0,0-2.56-3.1,30.65,30.65,0,0,0-3.24-2.95l-.92-.69c-.14-.1-.12-.1-.1-.09l-.28-.17c-.66-.4-1.32-.79-2-1.14a19.39,19.39,0,0,0-7.63-2.1,33.49,33.49,0,0,0,9.47,10.75l.7.51.6.42.61.39.93.57q1.81,1.08,3.7,2C79.37,162.45,81,163.15,82.61,163.81ZM65.26,151.59q-.16-.39-.29-.78h0a1.26,1.26,0,0,0,.47.27A1.74,1.74,0,0,0,65.26,151.59Z" fill="#999a1c"></path><path d="M82.22,162.75c1-1.33,1.9-2.73,2.9-4.3,1.28-2,2.48-4.05,3.57-6.16a40.7,40.7,0,0,0,2.61-5.84,48.74,48.74,0,0,0,1.91-6.69c.12-.6.23-1.2.33-1.8,0-.28.05-.25.05-.21s0-.19,0-.52c.11-1.22.19-2.44.2-3.67a30.84,30.84,0,0,0-2.4-12.35,53.25,53.25,0,0,0-8.62,21.09q-.13.68-.24,1.36s-.12.83-.17,1.16L82.28,146q-.09.86-.16,1.73c-.18,2.22-.26,4.46-.25,6.69C81.87,157.18,82,160,82.22,162.75Zm5.14-33.34q.44-.5.9-1h0a2,2,0,0,0-.06.87A2.77,2.77,0,0,0,87.36,129.41Z" fill="#999a1c"></path><path d="M82.53,163c.08-1.63.12-3.33.12-5.18,0-2.37-.11-4.75-.33-7.11a40.7,40.7,0,0,0-1-6.32,48.74,48.74,0,0,0-2-6.66c-.22-.57-.45-1.13-.69-1.69-.11-.26-.09-.24-.07-.2l-.25-.46c-.57-1.08-1.16-2.16-1.81-3.19A30.84,30.84,0,0,0,67.84,123,53.25,53.25,0,0,0,72,145.44q.26.64.53,1.27l.48,1.07.51,1q.39.78.8,1.54c1.05,2,2.19,3.89,3.4,5.76C79.22,158.46,80.84,160.73,82.53,163Zm-13.7-30.82q.1-.66.24-1.31h0a2,2,0,0,0,.42.76A2.77,2.77,0,0,0,68.83,132.13Z" fill="#999a1c"></path><path d="M82.61,163.81c-.48-.91-1-1.84-1.61-2.84-.77-1.28-1.59-2.53-2.47-3.73a25.6,25.6,0,0,0-2.56-3.1,30.65,30.65,0,0,0-3.24-2.95l-.92-.69c-.14-.1-.12-.1-.1-.09l-.28-.17c-.66-.4-1.32-.79-2-1.14a19.39,19.39,0,0,0-7.63-2.1,33.49,33.49,0,0,0,9.47,10.75l.7.51.6.42.61.39.93.57q1.81,1.08,3.7,2C79.37,162.45,81,163.15,82.61,163.81ZM65.26,151.59q-.16-.39-.29-.78h0a1.26,1.26,0,0,0,.47.27A1.74,1.74,0,0,0,65.26,151.59Z" fill="#999a1c"></path></g></g></svg>