<svg id="Layer_1" data-name="Layer 1" xmlns="http://www.w3.org/2000/svg" xmlns:xlink="http://www.w3.org/1999/xlink" viewBox="0 0 419.8 439.29" width="406" height="306" class="illustration styles_illustrationTablet__1DWOa"><defs><linearGradient id="linear-gradient" x1="209.7" y1="353.49" x2="224.19" y2="494.73" gradientUnits="userSpaceOnUse"><stop offset="0" stop-opacity="0"></stop><stop offset="0.91" stop-opacity="0.8"></stop><stop offset="1"></stop></linearGradient><linearGradient id="linear-gradient-2" x1="199.27" y1="344.72" x2="203.08" y2="446.73" xlink:href="#linear-gradient"></linearGradient><linearGradient id="linear-gradient-3" x1="290.86" y1="296.82" x2="291.37" y2="404.93" xlink:href="#linear-gradient"></linearGradient><linearGradient id="linear-gradient-4" x1="304.09" y1="359.02" x2="301.8" y2="307.51" xlink:href="#linear-gradient"></linearGradient><linearGradient id="linear-gradient-5" x1="302.96" y1="316.93" x2="306.01" y2="427.85" xlink:href="#linear-gradient"></linearGradient><linearGradient id="linear-gradient-6" x1="304.33" y1="333.17" x2="307.39" y2="384.16" xlink:href="#linear-gradient"></linearGradient><linearGradient id="linear-gradient-7" x1="106.61" y1="357.48" x2="25.78" y2="337.34" xlink:href="#linear-gradient"></linearGradient><linearGradient id="linear-gradient-8" x1="89.67" y1="363.59" x2="113.13" y2="306.99" xlink:href="#linear-gradient"></linearGradient><linearGradient id="linear-gradient-9" x1="78.9" y1="386.16" x2="121.74" y2="283.95" xlink:href="#linear-gradient"></linearGradient><linearGradient id="linear-gradient-10" x1="50.78" y1="331.75" x2="132.78" y2="331.75" xlink:href="#linear-gradient"></linearGradient><linearGradient id="linear-gradient-11" x1="88.49" y1="340.79" x2="131.84" y2="267.7" xlink:href="#linear-gradient"></linearGradient><linearGradient id="linear-gradient-12" x1="107.11" y1="303.89" x2="104.53" y2="371.6" xlink:href="#linear-gradient"></linearGradient><linearGradient id="linear-gradient-13" x1="131.97" y1="237.88" x2="98.99" y2="221.56" xlink:href="#linear-gradient"></linearGradient><linearGradient id="linear-gradient-14" x1="260.75" y1="290.54" x2="225.81" y2="294.4" gradientUnits="userSpaceOnUse"><stop offset="0" stop-color="#fff" stop-opacity="0"></stop><stop offset="1" stop-color="#fff"></stop></linearGradient><linearGradient id="linear-gradient-15" x1="300.12" y1="207.27" x2="301.48" y2="242.28" xlink:href="#linear-gradient"></linearGradient><linearGradient id="linear-gradient-16" x1="184.4" y1="226.32" x2="179.3" y2="344.63" xlink:href="#linear-gradient"></linearGradient><linearGradient id="linear-gradient-17" x1="117.25" y1="230.39" x2="105.84" y2="266.19" xlink:href="#linear-gradient"></linearGradient><linearGradient id="linear-gradient-18" x1="155.59" y1="173.83" x2="154.91" y2="185.56" gradientUnits="userSpaceOnUse"><stop offset="0" stop-color="#ecc4d7"></stop><stop offset="0.42" stop-color="#efd4d1"></stop><stop offset="1" stop-color="#f2eac9"></stop></linearGradient><linearGradient id="linear-gradient-19" x1="190.04" y1="154.5" x2="235.26" y2="188.33" xlink:href="#linear-gradient"></linearGradient><linearGradient id="linear-gradient-20" x1="202.66" y1="156.79" x2="241.65" y2="185.96" xlink:href="#linear-gradient"></linearGradient><linearGradient id="linear-gradient-21" x1="268.36" y1="174.52" x2="195.6" y2="190.16" xlink:href="#linear-gradient"></linearGradient><linearGradient id="linear-gradient-22" x1="221.2" y1="162.16" x2="290.56" y2="196.83" xlink:href="#linear-gradient"></linearGradient><linearGradient id="linear-gradient-23" x1="216.85" y1="138.31" x2="305.58" y2="315.78" xlink:href="#linear-gradient"></linearGradient><linearGradient id="linear-gradient-24" x1="127.25" y1="197.52" x2="127.76" y2="215.88" xlink:href="#linear-gradient"></linearGradient><linearGradient id="linear-gradient-25" x1="109.06" y1="192.44" x2="124.13" y2="192.44" xlink:href="#linear-gradient-14"></linearGradient><linearGradient id="linear-gradient-26" x1="99.11" y1="192.44" x2="117.47" y2="192.44" xlink:href="#linear-gradient-14"></linearGradient><linearGradient id="linear-gradient-27" x1="163.79" y1="157.22" x2="157.93" y2="137.84" xlink:href="#linear-gradient-14"></linearGradient><linearGradient id="linear-gradient-28" x1="132.05" y1="150.37" x2="146.07" y2="146.29" xlink:href="#linear-gradient-14"></linearGradient><linearGradient id="linear-gradient-29" x1="187.69" y1="163.89" x2="185.65" y2="249.56" xlink:href="#linear-gradient"></linearGradient><linearGradient id="linear-gradient-30" x1="172.98" y1="163.54" x2="170.94" y2="249.21" xlink:href="#linear-gradient"></linearGradient><linearGradient id="linear-gradient-31" x1="198.55" y1="243.25" x2="241.13" y2="263.4" xlink:href="#linear-gradient"></linearGradient><linearGradient id="linear-gradient-32" x1="175.51" y1="240.24" x2="344.82" y2="365.69" xlink:href="#linear-gradient"></linearGradient><linearGradient id="linear-gradient-33" x1="230.35" y1="247.87" x2="273.96" y2="289.17" xlink:href="#linear-gradient"></linearGradient><linearGradient id="linear-gradient-34" x1="210.13" y1="236.52" x2="375.69" y2="373.53" xlink:href="#linear-gradient"></linearGradient><linearGradient id="linear-gradient-35" x1="246.7" y1="307.88" x2="363.1" y2="307.88" xlink:href="#linear-gradient"></linearGradient><linearGradient id="linear-gradient-36" x1="250.15" y1="307.02" x2="301.86" y2="307.02" xlink:href="#linear-gradient"></linearGradient><linearGradient id="linear-gradient-37" x1="307.03" y1="301.06" x2="339.51" y2="301.06" gradientTransform="translate(24.3 -24.14) rotate(4.44)" xlink:href="#linear-gradient"></linearGradient><linearGradient id="linear-gradient-38" x1="307.54" y1="307.64" x2="340.02" y2="307.64" gradientTransform="translate(24.81 -24.16) rotate(4.44)" xlink:href="#linear-gradient"></linearGradient><linearGradient id="linear-gradient-39" x1="167.69" y1="307.58" x2="171.77" y2="294.66" xlink:href="#linear-gradient"></linearGradient><linearGradient id="linear-gradient-40" x1="198.82" y1="324.59" x2="201.71" y2="311.16" xlink:href="#linear-gradient"></linearGradient><linearGradient id="linear-gradient-41" x1="238.92" y1="110.06" x2="247.76" y2="118.56" xlink:href="#linear-gradient-18"></linearGradient><linearGradient id="linear-gradient-42" x1="229.68" y1="70.96" x2="219.65" y2="106.48" xlink:href="#linear-gradient-18"></linearGradient><linearGradient id="linear-gradient-43" x1="231.93" y1="57.71" x2="203.76" y2="150.14" xlink:href="#linear-gradient"></linearGradient><linearGradient id="linear-gradient-44" x1="245.09" y1="116.93" x2="245.47" y2="137.71" xlink:href="#linear-gradient"></linearGradient><linearGradient id="linear-gradient-45" x1="162.43" y1="191.92" x2="164.3" y2="202.12" xlink:href="#linear-gradient-18"></linearGradient><linearGradient id="linear-gradient-46" x1="321.2" y1="172.58" x2="321.2" y2="172.58" xlink:href="#linear-gradient"></linearGradient><linearGradient id="linear-gradient-47" x1="196.62" y1="46.82" x2="259.27" y2="46.82" xlink:href="#linear-gradient-14"></linearGradient><linearGradient id="linear-gradient-48" x1="320.48" y1="319.61" x2="252.91" y2="237.25" xlink:href="#linear-gradient-14"></linearGradient><linearGradient id="linear-gradient-49" x1="250.23" y1="340.75" x2="343.2" y2="340.75" xlink:href="#linear-gradient"></linearGradient></defs><title>70. riding Scooter</title><path d="M2.94,381.53S-11.54,265.22,23.77,202.78,88,141.94,106.15,83.65s71-99,140.55-81.83,56.87,102.37,84.46,127.24,93.69,82.65,88.26,226.68Z" transform="translate(0 2.16)" fill="#68e1fd" opacity="0.27"></path><path d="M2.94,381.53l416.48-25.79s6.33,14.69-32.6,37.26-99.65,11.49-143.08,26.54S41,445.83,22.86,428,2.94,381.53,2.94,381.53Z" transform="translate(0 2.16)" fill="#68e1fd"></path><path d="M2.94,381.53l416.48-25.79s6.33,14.69-32.6,37.26-99.65,11.49-143.08,26.54S41,445.83,22.86,428,2.94,381.53,2.94,381.53Z" transform="translate(0 2.16)" fill="url(#linear-gradient)"></path><path d="M22.59,393.78a4.49,4.49,0,0,0-2.66,1.1c-2.07,2.27,1.77,5.22,4.79,5.8,28.13,5.4,57.2-.06,85.78,2-1.71.33-1.8,3-.47,4.14s3.26,1.05,5,.94l140.4-8.8c10.32-.64,20.76-1.32,30.59-4.51,5.39-1.76,10.54-4.26,16-5.78,8.46-2.35,17.44-2.29,25.95-4.45s47.61-12.76,53.93-18.8c-31.53,1-94.27,9.06-125.71,11.64a12.52,12.52,0,0,0,0,7.42l-71.56,2a20.18,20.18,0,0,1-6.72-.57,34.24,34.24,0,0,1-5-2.45c-7.48-3.79-16.31-3.38-24.68-2.88C106.93,383.07,62.7,382.32,22.59,393.78Z" transform="translate(0 2.16)" fill="url(#linear-gradient-2)"></path><circle cx="291.08" cy="343.6" r="40.08" fill="#68e1fd"></circle><circle cx="291.08" cy="343.6" r="40.08" fill="url(#linear-gradient-3)"></circle><circle cx="303.41" cy="343.77" r="40.08" fill="#68e1fd"></circle><circle cx="303.41" cy="343.77" r="40.08" fill="url(#linear-gradient-4)"></circle><path d="M308.08,305.39a36.94,36.94,0,1,0,32.24,41.1A36.93,36.93,0,0,0,308.08,305.39Zm19.36,40.07a22.7,22.7,0,1,1-19.82-25.25A22.71,22.71,0,0,1,327.44,345.46Z" transform="translate(0 2.16)" fill="url(#linear-gradient-5)"></path><path d="M320.64,344.64A15.85,15.85,0,1,1,306.8,327,15.86,15.86,0,0,1,320.64,344.64Z" transform="translate(0 2.16)" fill="url(#linear-gradient-6)"></path><circle cx="82.88" cy="351.57" r="40.08" fill="#68e1fd"></circle><circle cx="82.88" cy="351.57" r="40.08" fill="url(#linear-gradient-7)"></circle><circle cx="93.61" cy="354.1" r="40.08" fill="#68e1fd"></circle><circle cx="93.61" cy="354.1" r="40.08" fill="url(#linear-gradient-8)"></circle><path d="M97.55,316.17A36.08,36.08,0,1,0,129,356.31,36.07,36.07,0,0,0,97.55,316.17Zm18.36,40.39A22.7,22.7,0,1,1,96.1,331.3,22.7,22.7,0,0,1,115.91,356.56Z" transform="translate(0 2.16)" fill="url(#linear-gradient-9)"></path><path d="M50.78,325.41l7.38,7.82,16.19,8.21s13.14,7.32,39.92,3.53l18.51-1.52s-4-11.45-7.58-13.34-68.06-12.68-68.06-12.68Z" transform="translate(0 2.16)" fill="url(#linear-gradient-10)"></path><path d="M91.41,296s-30.75-.08-42.37,17.2l44.55,25.76,53.69-3.08S125.07,304.41,91.41,296Z" transform="translate(0 2.16)" fill="#68e1fd"></path><path d="M147.28,335.83l-53.59,3.08h-.1L49,313.15c11.63-17.28,42.37-17.21,42.37-17.21a87.87,87.87,0,0,1,28.88,13.71A123,123,0,0,1,147.28,335.83Z" transform="translate(0 2.16)" fill="url(#linear-gradient-11)"></path><path d="M147.28,335.83l-53.59,3.08L65,322.33c11.62-17.28,42.37-17.2,42.37-17.2a76.2,76.2,0,0,1,12.9,4.52A123,123,0,0,1,147.28,335.83Z" transform="translate(0 2.16)" fill="url(#linear-gradient-12)"></path><path d="M341.5,329c-1.85,1.36-183.06,26.6-243.25-17.44C72.86,293,135.33,204.1,135.33,204.1c4.65-6.18,15.74,1.45,15.74,1.45l-.29,1-20.6,73.32a16,16,0,0,0,12.07,20c18.34,3.93,46.88,9.81,59.56,11.17,17.74,1.9,28.13-10.07,27.47-19.68-.45-6.51-1.72-21.9-2.5-31.17-.38-4.44-.63-7.47-.63-7.47s5.89-18.82,68.45-15.23,61.11,38.88,61.38,59.81S343.35,327.62,341.5,329Z" transform="translate(0 2.16)" fill="#68e1fd"></path><path d="M342.39,329c-1.84,1.36-183.06,26.6-243.24-17.44C73.75,293,136.23,204.1,136.23,204.1c4.64-6.18,15.73,1.45,15.73,1.45l-.29,1-20.6,73.32a16,16,0,0,0,12.07,20c18.34,3.93,46.88,9.81,59.56,11.17,17.75,1.9,28.13-10.07,27.47-19.68-.45-6.51-1.72-21.9-2.5-31.17-.37-4.44-.63-7.47-.63-7.47s5.89-18.82,68.45-15.23,61.11,38.88,61.38,59.81S344.24,327.62,342.39,329Z" transform="translate(0 2.16)" fill="url(#linear-gradient-13)"></path><path d="M256.82,255V287.6s0,1.62-.19,4.22c-9.47,11.66-12.12,26.55-12.79,35.83a9.85,9.85,0,0,1-5,1.23,6.87,6.87,0,0,1-4.38-1.72,6.13,6.13,0,0,0,3-1.36c5-6.16-5.68-59.78-5.68-59.78l-10-7Z" transform="translate(0 2.16)" fill="url(#linear-gradient-14)"></path><path d="M285.94,218.25s53.58-7.2,59.14-4.37,8.74,32.89,8.74,32.89L249.89,257.43S268.55,217.57,285.94,218.25Z" transform="translate(0 2.16)" fill="#68e1fd"></path><path d="M285.94,218.25s53.58-7.2,59.14-4.37,8.74,32.89,8.74,32.89L249.89,257.43S268.55,217.57,285.94,218.25Z" transform="translate(0 2.16)" fill="url(#linear-gradient-15)"></path><path d="M242.41,327c-1.87,2.29-16.38,3.5-34.8,2.93a317.16,317.16,0,0,1-33.51-2.81c-22.58-3.17-43.84-9.12-51.37-18.84-18-23.26,24.06-104.56,24.06-104.56l4,2.82-20.6,73.32a16,16,0,0,0,12.07,20c18.34,3.93,46.88,9.81,59.56,11.17,17.74,1.9,28.13-10.07,27.47-19.68-.45-6.51-1.72-21.9-2.5-31.17l9.95,7S247.47,320.87,242.41,327Z" transform="translate(0 2.16)" fill="#68e1fd"></path><path d="M242.41,327a6.09,6.09,0,0,1-3,1.36c-5.49,1.39-17.45,2-31.78,1.58a315.24,315.24,0,0,1-33.52-2.82c-22.56-3.16-43.84-9.11-51.36-18.83-18-23.26,24.06-104.57,24.06-104.57l4,2.83-20.59,73.33a16,16,0,0,0,12.06,20c18.34,3.93,46.89,9.81,59.57,11.17,15.06,1.61,24.81-6.76,27-15.21a13.72,13.72,0,0,0,.45-4.47c-.45-6.5-1.73-21.91-2.5-31.17l9.95,7S247.47,320.88,242.41,327Z" transform="translate(0 2.16)" fill="url(#linear-gradient-16)"></path><polygon points="106.09 236.19 125.2 237.8 116.6 258.95 98.67 256.17 106.09 236.19" fill="#68e1fd"></polygon><polygon points="106.81 237.59 123.58 238.99 116.03 257.56 100.29 255.12 106.81 237.59" fill="url(#linear-gradient-17)"></polygon><path d="M166.5,182.39s-16.33-8.27-22.22-5.38-4.84,7.4-4.84,7.4l7.47,10,13.3,3.4,9.93-4.88Z" transform="translate(0 2.16)" fill="url(#linear-gradient-18)"></path><path d="M230.83,132.94s-10.08,23.42-11.69,29.25-41.14,9.24-45,13.44a6.61,6.61,0,0,0-1.56,3.4c-.72,4.21,1.56,9.19,1.56,9.19l5.91,8.29,53.73-6.22S238.76,145.32,230.83,132.94Z" transform="translate(0 2.16)" fill="#68e1fd"></path><path d="M233.8,190.29l-53.73,6.22-5.9-8.29s-2.29-5-1.57-9.2a6.79,6.79,0,0,1,.72-2.16l4.43,6.22,53.74-6.22s2.47-22.43,1.13-40C237.93,152.84,233.8,190.29,233.8,190.29Z" transform="translate(0 2.16)" fill="url(#linear-gradient-19)"></path><path d="M231.49,176.86l-53.74,6.22-4.43-6.22a5.05,5.05,0,0,1,.85-1.22c3.83-4.22,43.36-7.63,45-13.45s11.69-29.25,11.69-29.25a16.86,16.86,0,0,1,1.79,3.95C234,154.43,231.49,176.86,231.49,176.86Z" transform="translate(0 2.16)" fill="url(#linear-gradient-20)"></path><path d="M252.2,118.51s-18.17,6.64-21.37,14.43,5.76,59,4.5,88.11c-.64,14.77,18.09,19.66,41.24,9.89s3.78-82.74,3.78-82.74S273.58,120.89,252.2,118.51Z" transform="translate(0 2.16)" fill="#68e1fd"></path><path d="M252.2,118.51s-18.17,6.64-21.37,14.43,5.76,59,4.5,88.11c-.64,14.77,18.09,19.66,41.24,9.89s3.78-82.74,3.78-82.74S273.58,120.89,252.2,118.51Z" transform="translate(0 2.16)" fill="url(#linear-gradient-21)"></path><path d="M245.66,146.79a20.56,20.56,0,0,1,9.14-17.55,11.67,11.67,0,0,1,12.63,0c15.93,10.74,2.87,59.79.09,63.68-6.68,9.35-36.22,20.27-74.66,11.08,0,0-11.22-13.94-2.44-19.64s49.91,1.69,53.09-10.42C245.55,166.22,245.77,154.32,245.66,146.79Z" transform="translate(0 2.16)" fill="#68e1fd"></path><path d="M267.52,193c-6.68,9.34-36.22,20.27-74.66,11.08l-.28-.36c-1.68-2.23-10.1-14.12-2.16-19.29,8.79-5.7,49.91,1.7,53.1-10.41,2-7.76,2.25-19.66,2.14-27.2a20.55,20.55,0,0,1,9.14-17.55,11.29,11.29,0,0,1,6.1-1.84,11.86,11.86,0,0,1,6.53,1.89C283.36,140,270.3,189.08,267.52,193Z" transform="translate(0 2.16)" fill="url(#linear-gradient-22)"></path><path d="M267.52,193c-6.68,9.34-36.22,20.27-74.66,11.08l-.28-.36a7,7,0,0,1,3.31-5.41c8.79-5.7,48,.19,57.44-8,17.07-14.74,8-49.1,7.57-62.89a11.86,11.86,0,0,1,6.53,1.89C283.36,140,270.3,189.08,267.52,193Z" transform="translate(0 2.16)" fill="url(#linear-gradient-23)"></path><path d="M188.36,186.75l-7.69.83s-1.35-.23,0,3.71,2.89,11.57,4,12.71,8.19.05,8.19.05,2.39-.51-.39-5.43S191.12,188.14,188.36,186.75Z" transform="translate(0 2.16)" fill="#68e1fd"></path><path d="M150,209.92l6.67,5s3.16,3.06,6.22.56a6.42,6.42,0,0,0,1.8-8c-1.06-1.85-7.35-4.51-8.29-4.63s-4.32-.83-5.27,3.62S150,209.92,150,209.92Z" transform="translate(0 2.16)" fill="#68e1fd"></path><path d="M136.18,174.5s13.93,7.91,15.21,10.69,10.66,20.21,10.66,20.21l-9.62,6.44s-6.07-4.87-9.55-3.06-15.8.45-15.8.45S130.21,177,136.18,174.5Z" transform="translate(0 2.16)" fill="#68e1fd"></path><path d="M111,176.78a12.3,12.3,0,0,1,14.08-6.41c4.8,1.25,10.85,3.4,15.7,7,9.64,7.14,3.61,21.11,1.79,24s-13.26,11.81-24.23,8.31C109.28,206.74,104.29,190.36,111,176.78Z" transform="translate(0 2.16)" fill="#68e1fd"></path><path d="M111,176.78a12.3,12.3,0,0,1,14.08-6.41c4.8,1.25,10.85,3.4,15.7,7,9.64,7.14,3.61,21.11,1.79,24s-13.26,11.81-24.23,8.31C109.28,206.74,104.29,190.36,111,176.78Z" transform="translate(0 2.16)" fill="url(#linear-gradient-24)"></path><ellipse cx="116.6" cy="192.44" rx="7.54" ry="17.24" fill="url(#linear-gradient-25)"></ellipse><ellipse cx="115.27" cy="192.44" rx="6.21" ry="14.2" fill="url(#linear-gradient-26)"></ellipse><path d="M145.82,185.28s4.48-18,10.92-31.39c3.36-7,7.26-12.82,11.33-14.14,11.84-3.87,16.42-2.08,18.3,4.6s-6.53,20.13-15.24,17.16-9-9.18-13-5.47-10.48,29.24-10.48,29.24S148.92,188.34,145.82,185.28Z" transform="translate(0 2.16)" fill="#68e1fd"></path><path d="M134.75,173.8s2.19-20.75,1.92-23.32-8.08-4.27-9.59-7.24-5.72-9.65,0-16.7,14.41,5,12.85,15.77-3.86,33.32-3.86,33.32Z" transform="translate(0 2.16)" fill="#68e1fd"></path><path d="M145.82,185.28s4.48-18,10.92-31.39c3.36-7,7.26-12.82,11.33-14.14,11.84-3.87,16.42-2.08,18.3,4.6s-6.53,20.13-15.24,17.16-9-9.18-13-5.47-10.48,29.24-10.48,29.24S148.92,188.34,145.82,185.28Z" transform="translate(0 2.16)" fill="url(#linear-gradient-27)"></path><path d="M134.75,173.8s2.19-20.75,1.92-23.32-8.08-4.27-9.59-7.24-5.72-9.65,0-16.7,14.41,5,12.85,15.77-3.86,33.32-3.86,33.32Z" transform="translate(0 2.16)" fill="url(#linear-gradient-28)"></path><path d="M167,179.91l5.65-.88,5.69,15.77-7,.84S164.74,180.79,167,179.91Z" transform="translate(0 2.16)" fill="#68e1fd"></path><path d="M188.36,186.75l-7.69.83s-1.35-.23,0,3.71,2.89,11.57,4,12.71,8.19.05,8.19.05,2.39-.51-.39-5.43S191.12,188.14,188.36,186.75Z" transform="translate(0 2.16)" fill="url(#linear-gradient-29)"></path><path d="M167,179.91l5.65-.88,5.69,15.77-7,.84S164.74,180.79,167,179.91Z" transform="translate(0 2.16)" fill="url(#linear-gradient-30)"></path><path d="M287.82,213.68s-90.71,3.92-97,18.81S169,301.07,169,301.07l19.78,3.17,16.76-52.78s68,.67,75.68-8.76S287.82,213.68,287.82,213.68Z" transform="translate(0 2.16)" fill="#68e1fd"></path><path d="M281.2,242.7c-5.05,6.23-36.55,8.06-57.28,8.57-10.6.26-18.4.19-18.4.19l-16.76,52.78-9.21-1.48L169,301.07s15.46-53.69,21.79-68.58,97-18.81,97-18.81S288.84,233.27,281.2,242.7Z" transform="translate(0 2.16)" fill="url(#linear-gradient-31)"></path><path d="M239.35,228l-15.43,23.25c-10.6.26-18.4.19-18.4.19l-16.76,52.78-9.21-1.48s14.16-50.38,19.83-62.11S231.13,228,231.13,228Z" transform="translate(0 2.16)" fill="url(#linear-gradient-32)"></path><path d="M220,230.82l67.81-17.14s6,34.07-14.34,39.64-44.1,5.32-44.1,5.32l-9.65,50.54-17.61.55s3.49-68.84,6.39-72S220,230.82,220,230.82Z" transform="translate(0 2.16)" fill="#68e1fd"></path><path d="M288.48,229c-.68,9.83-4,21.3-15,24.33-20.31,5.57-44.09,5.32-44.09,5.32l-9.65,50.54-8.9.29-8.72.27s3.51-68.85,6.4-72,11.51-6.9,11.51-6.9l67.8-17.14A70.57,70.57,0,0,1,288.48,229Z" transform="translate(0 2.16)" fill="url(#linear-gradient-33)"></path><path d="M288.48,229c-.68,9.83-4,21.3-15,24.33-20.31,5.57-44.09,5.32-44.09,5.32l-9.65,50.54-8.9.29c1.19-20.26,3.56-56,5.63-58.28,2.9-3.17,11.51-6.9,11.51-6.9Z" transform="translate(0 2.16)" fill="url(#linear-gradient-34)"></path><path d="M272.43,283.85S249.85,296,246.7,339.71L362,327.12s6.79-23.71-12.59-46.33C342.62,272.92,290.84,275.51,272.43,283.85Z" transform="translate(0 2.16)" fill="url(#linear-gradient-35)"></path><path d="M301.86,277.27s-30.79,14.2-34.67,42.59l-1.93,16-15,.93a67,67,0,0,1,.14-8.78c.67-9.29,3.32-24.17,12.78-35.83C270.63,283,283.54,278.12,301.86,277.27Z" transform="translate(0 2.16)" fill="url(#linear-gradient-36)"></path><rect x="306.99" y="299.39" width="32.56" height="3.34" rx="1.67" transform="translate(-22.35 28.11) rotate(-4.44)" fill="url(#linear-gradient-37)"></rect><rect x="307.5" y="305.97" width="32.56" height="3.34" rx="1.67" transform="translate(-22.86 28.17) rotate(-4.44)" fill="url(#linear-gradient-38)"></rect><path d="M169,301.07s-15.18-2.86-17.23.54a38.84,38.84,0,0,0-3.4,8.34l34.92,5.87,4.41-12.62Z" transform="translate(0 2.16)" fill="#68e1fd"></path><path d="M169,301.07s-15.18-2.86-17.23.54a38.84,38.84,0,0,0-3.4,8.34l34.92,5.87,4.41-12.62Z" transform="translate(0 2.16)" fill="url(#linear-gradient-39)"></path><path d="M202.12,309.73s-16.52,3.31-20.48,7.11-1,8.57-1,8.57l38.61-2.28-2-13.87Z" transform="translate(0 2.16)" fill="#68e1fd"></path><path d="M202.12,309.73s-16.52,3.31-20.48,7.11-1,8.57-1,8.57l38.61-2.28-2-13.87Z" transform="translate(0 2.16)" fill="url(#linear-gradient-40)"></path><path d="M250.62,98.06l1.58,20.45s-3.34,10.39-13.81,11.29c0,0-3.15,1.75-4.59-2.15l-3-11.52Z" transform="translate(0 2.16)" fill="url(#linear-gradient-41)"></path><path d="M202.64,64.45s1.4,51.09,17.09,52.25,21-3.89,25.84-9.67c9.79-11.73,10.88-34.3,0-37.27S213.32,47.29,202.64,64.45Z" transform="translate(0 2.16)" fill="url(#linear-gradient-42)"></path><path d="M265.21,103.71a22.48,22.48,0,0,1-13.83,4.06h-.29a27,27,0,0,1-5.83-.73s1.15-20.23-.31-28.26c-1.07-5.89-26.71-9.57-40.27-11.11a9.16,9.16,0,0,1-8-8.14,10,10,0,0,1,0-1.55c.4-6.06,1.51-11.53,4.62-15.23A35.15,35.15,0,0,1,225.63,30.5c9-.71,21.71.14,33.64,7.56A49.88,49.88,0,0,1,264,41.35C286.36,59.16,273.8,97.31,265.21,103.71Z" transform="translate(0 2.16)" fill="#68e1fd"></path><path d="M251.38,107.77h-.29a27,27,0,0,1-5.83-.73s1.15-20.23-.31-28.26c-1.07-5.89-26.71-9.57-40.27-11.11a9.1,9.1,0,0,1-8-8.14c1.61.19,49.29,5.89,52.8,12.23S251.38,107.77,251.38,107.77Z" transform="translate(0 2.16)" fill="url(#linear-gradient-43)"></path><path d="M255.7,117.64l1.19,1.84s-3.77,9.65-13.58,10.71-9.9.33-9.7-1.1,5,1.4,9.31-2.68c2.75-2.58,6.42-6.55,8.74-9.11A2.55,2.55,0,0,1,255.7,117.64Z" transform="translate(0 2.16)" fill="#68e1fd"></path><path d="M255.7,117.64l1.19,1.84s-3.77,9.65-13.58,10.71-9.9.33-9.7-1.1,5,1.4,9.31-2.68c2.75-2.58,6.42-6.55,8.74-9.11A2.55,2.55,0,0,1,255.7,117.64Z" transform="translate(0 2.16)" fill="url(#linear-gradient-44)"></path><path d="M180.07,188.6c-.39.56-11.35-.65-18.22-3.8s-14.94,2.78-15.49,7.79-2.51,12.71,0,15.4,4.83,2,4.72,1.13-.73-7.34,5.3-6.23,7.79,5.38,11.59,6.59S184.12,203,184.12,203Z" transform="translate(0 2.16)" fill="url(#linear-gradient-45)"></path><path d="M321.2,172.58" transform="translate(0 2.16)" fill="url(#linear-gradient-46)"></path><path d="M198.37,75a3.56,3.56,0,0,0,.36,1.32A3.74,3.74,0,0,0,200,77.59a10.13,10.13,0,0,0,5.22,1.68,20.74,20.74,0,0,0,3.69-.32l6.23-.92a24.2,24.2,0,0,1-1.38-3.28A20.7,20.7,0,0,0,223.35,77a43.81,43.81,0,0,1,4.86-.06,20.43,20.43,0,0,1,6.6,2.26c.73.35,1.81.59,2.18-.13.1-.2.12-.44.27-.59a.76.76,0,0,1,.64-.15,10,10,0,0,1,2.78,1.14,2.35,2.35,0,0,0,2.78-.35,1.94,1.94,0,0,0-.2-2.27,5.56,5.56,0,0,0-2-1.38,88.84,88.84,0,0,0-19.19-6.65,73.49,73.49,0,0,0-10.24-1.51c-2.89-.21-6.87-.82-9.69,0S198.07,72.4,198.37,75Z" transform="translate(0 2.16)" fill="#232e30"></path><path d="M259.27,38.06a5.44,5.44,0,0,1-2.87-.16A38.83,38.83,0,0,0,212.9,55c-1.33,2.16-2.17,5.42-4.18,7-2.5,2-5.85,1.16-8.73.82a20.79,20.79,0,0,0-2.37-.13,9,9,0,0,1-1-3.21,10,10,0,0,1,0-1.55c.4-6.06,1.51-11.53,4.62-15.23A35.15,35.15,0,0,1,225.63,30.5C234.59,29.79,247.34,30.64,259.27,38.06Z" transform="translate(0 2.16)" fill="url(#linear-gradient-47)"></path><path d="M270,326.88s7.39-37.28,37.22-48.5,47.89,11.92,49.69,19c0,0-29.8-15.71-44.85-1.4s-26,34.17-26,34.17Z" transform="translate(0 2.16)" fill="url(#linear-gradient-48)"></path><polygon points="250.99 348.22 263.87 350.36 343.2 338.93 341.5 331.14 250.23 338.93 250.99 348.22" fill="url(#linear-gradient-49)"></polygon></svg>